<svg version="1.1" xmlns="http://www.w3.org/2000/svg" xmlns:xlink="http://www.w3.org/1999/xlink" width="512px" height="512px" viewBox="0,0,256,256"><g fill="#35a22c" fill-rule="nonzero" stroke="none" stroke-width="1" stroke-linecap="butt" stroke-linejoin="miter" stroke-miterlimit="10" stroke-dasharray="" stroke-dashoffset="0" font-family="none" font-weight="none" font-size="none" text-anchor="none" style="mix-blend-mode: normal"><g transform="scale(0.5,0.5)"><path d="M448,32h-86.1l-1,1l-127,127h92.1l1,-1l126.8,-126.7c-1.9,-0.2 -3.8,-0.3 -5.8,-0.3zM512,160v-64c0,-15.1 -5.3,-29.1 -14,-40l-104,104zM294.1,32h-92.2l-1,1l-127,127h92.1l1,-1l127,-127zM64,32c-35.3,0 -64,28.7 -64,64v64h6.1l1,-1l127,-127zM512,192h-512v224c0,35.3 28.7,64 64,64h384c35.3,0 64,-28.7 64,-64z"></path></g></g></svg>