<svg version="1.1" xmlns="http://www.w3.org/2000/svg" xmlns:xlink="http://www.w3.org/1999/xlink" width="384px" height="512px" viewBox="0,0,192,256"><g fill="#35a22c" fill-rule="nonzero" stroke="none" stroke-width="1" stroke-linecap="butt" stroke-linejoin="miter" stroke-miterlimit="10" stroke-dasharray="" stroke-dashoffset="0" font-family="none" font-weight="none" font-size="none" text-anchor="none" style="mix-blend-mode: normal"><g transform="scale(0.5,0.5)"><path d="M192,64l-32,-64h-32l-32,64l-32,-64h-16c-26.5,0 -48,21.5 -48,48v208h384v-208c0,-26.5 -21.5,-48 -48,-48h-112zM0,288v32c0,35.3 28.7,64 64,64h64v64c0,35.3 28.7,64 64,64c35.3,0 64,-28.7 64,-64v-64h64c35.3,0 64,-28.7 64,-64v-32zM192,464c-8.8,0 -16,-7.2 -16,-16c0,-8.8 7.2,-16 16,-16c8.8,0 16,7.2 16,16c0,8.8 -7.2,16 -16,16z"></path></g></g></svg>