<svg version="1.1" xmlns="http://www.w3.org/2000/svg" xmlns:xlink="http://www.w3.org/1999/xlink" width="512px" height="512px" viewBox="0,0,256,256"><g fill="#35a22c" fill-rule="nonzero" stroke="none" stroke-width="1" stroke-linecap="butt" stroke-linejoin="miter" stroke-miterlimit="10" stroke-dasharray="" stroke-dashoffset="0" font-family="none" font-weight="none" font-size="none" text-anchor="none" style="mix-blend-mode: normal"><g transform="translate(-0.09218,0) scale(0.5,0.5)"><path d="M477.5,128c-14.5,-24.95 -192.37,-128 -221.34,-128c-28.97,0 -206.91,102.79 -221.32,128c-14.41,25.21 -14.49,230.8 0,256c14.49,25.2 192.38,128 221.32,128c28.94,0 206.84,-102.92 221.33,-128c14.49,-25.08 14.51,-231 0.01,-256zM316.13,414.22c-4,0 -40.91,-35.77 -38,-38.69c0.87,-0.87 6.26,-1.48 17.55,-1.83c0,-26.23 0.59,-68.59 0.94,-86.32c0,-2 -0.44,-3.43 -0.44,-5.85h-79.93c0,7.1 -0.46,36.2 1.37,72.88c0.23,4.54 -1.58,6 -5.74,5.94c-10.13,0 -20.27,-0.11 -30.41,-0.08c-4.1,0 -5.87,-1.53 -5.74,-6.11c0.92,-33.44 3,-84 -0.15,-212.67v-3.17c-9.67,-0.35 -16.38,-1 -17.26,-1.84c-2.92,-2.92 34.54,-38.69 38.49,-38.69c3.95,0 41.17,35.78 38.27,38.69c-0.87,0.87 -7.9,1.49 -16.77,1.84v3.16c-2.42,25.75 -2,79.59 -2.63,105.39h80.26c0,-4.55 0.39,-34.74 -1.2,-83.64c-0.1,-3.39 0.95,-5.17 4.21,-5.2c11.07,-0.08 22.15,-0.13 33.23,-0.06c3.46,0 4.57,1.72 4.5,5.38c-3.68,191.29 -0.68,177.94 -0.68,210.34c8.87,0.35 16.82,1 17.69,1.84c2.88,2.91 -33.62,38.69 -37.58,38.69z"></path></g></g></svg>